<svg width="24" height="24" viewBox="0 0 24 24" fill="none" xmlns="http://www.w3.org/2000/svg">
<rect width="24" height="24" rx="12" fill="white"/>
<g clip-path="url(#clip0_1_3)">
<path d="M11.99 19.3C10.91 19.3 9.94333 19.12 9.09 18.76C8.24333 18.3933 7.52333 17.8833 6.93 17.23C6.33667 16.57 5.88333 15.78 5.57 14.86C5.25667 13.94 5.1 12.92 5.1 11.8C5.1 10.68 5.25667 9.66 5.57 8.74C5.88333 7.82 6.33667 7.03333 6.93 6.38C7.52333 5.72 8.24333 5.21 9.09 4.85C9.94333 4.48333 10.91 4.3 11.99 4.3C12.8167 4.3 13.5767 4.40667 14.27 4.62C14.97 4.83333 15.5933 5.14 16.14 5.54C16.6867 5.94 17.1567 6.42333 17.55 6.99C17.9433 7.55667 18.25 8.19333 18.47 8.9L16.04 9.57C15.9 9.10333 15.71 8.68667 15.47 8.32C15.2367 7.94667 14.95 7.63 14.61 7.37C14.2767 7.11 13.89 6.91333 13.45 6.78C13.0167 6.64 12.53 6.57 11.99 6.57C11.29 6.57 10.6667 6.69667 10.12 6.95C9.58 7.19667 9.12333 7.55 8.75 8.01C8.38333 8.46333 8.10333 9.01333 7.91 9.66C7.72333 10.3 7.63 11.0133 7.63 11.8C7.63 12.5867 7.72 13.3033 7.9 13.95C8.08667 14.59 8.36 15.14 8.72 15.6C9.08667 16.0533 9.54 16.4067 10.08 16.66C10.6267 16.9067 11.2633 17.03 11.99 17.03C12.53 17.03 13.0167 16.9633 13.45 16.83C13.89 16.69 14.2767 16.49 14.61 16.23C14.95 15.97 15.2367 15.6567 15.47 15.29C15.71 14.9167 15.9 14.4967 16.04 14.03L18.47 14.7C18.25 15.4067 17.9433 16.0433 17.55 16.61C17.1567 17.1767 16.6867 17.66 16.14 18.06C15.5933 18.46 14.97 18.7667 14.27 18.98C13.5767 19.1933 12.8167 19.3 11.99 19.3ZM26.9556 19.3C25.8756 19.3 24.909 19.12 24.0556 18.76C23.209 18.3933 22.489 17.8833 21.8956 17.23C21.3023 16.57 20.849 15.78 20.5356 14.86C20.2223 13.94 20.0656 12.92 20.0656 11.8C20.0656 10.68 20.2223 9.66 20.5356 8.74C20.849 7.82 21.3023 7.03333 21.8956 6.38C22.489 5.72 23.209 5.21 24.0556 4.85C24.909 4.48333 25.8756 4.3 26.9556 4.3C28.0356 4.3 29.0023 4.48333 29.8556 4.85C30.709 5.21 31.4323 5.72 32.0256 6.38C32.619 7.03333 33.0723 7.82 33.3856 8.74C33.699 9.66 33.8556 10.68 33.8556 11.8C33.8556 12.92 33.699 13.94 33.3856 14.86C33.0723 15.78 32.619 16.57 32.0256 17.23C31.4323 17.8833 30.709 18.3933 29.8556 18.76C29.0023 19.12 28.0356 19.3 26.9556 19.3ZM26.9556 17.03C27.6823 17.03 28.3156 16.9067 28.8556 16.66C29.4023 16.4067 29.8556 16.0533 30.2156 15.6C30.5823 15.14 30.8556 14.59 31.0356 13.95C31.2156 13.3033 31.3056 12.5867 31.3056 11.8C31.3056 11.0133 31.2156 10.3 31.0356 9.66C30.8556 9.01333 30.5823 8.46333 30.2156 8.01C29.8556 7.55 29.4023 7.19667 28.8556 6.95C28.3156 6.69667 27.6823 6.57 26.9556 6.57C26.229 6.57 25.5956 6.69667 25.0556 6.95C24.5156 7.19667 24.0656 7.55 23.7056 8.01C23.3456 8.46333 23.0723 9.01333 22.8856 9.66C22.7056 10.3 22.6156 11.0133 22.6156 11.8C22.6156 12.5867 22.7056 13.3033 22.8856 13.95C23.0656 14.59 23.3356 15.14 23.6956 15.6C24.0556 16.0533 24.5056 16.4067 25.0456 16.66C25.5923 16.9067 26.229 17.03 26.9556 17.03ZM41.3761 19.3C40.5761 19.3 39.8361 19.1933 39.1561 18.98C38.4761 18.7667 37.8761 18.4633 37.3561 18.07C36.8428 17.67 36.4194 17.19 36.0861 16.63C35.7528 16.07 35.5294 15.44 35.4161 14.74L37.9161 14.36C38.1294 15.2467 38.5394 15.9167 39.1461 16.37C39.7594 16.8167 40.5528 17.04 41.5261 17.04C41.9594 17.04 42.3561 16.99 42.7161 16.89C43.0828 16.7833 43.3994 16.6367 43.6661 16.45C43.9328 16.2633 44.1394 16.0433 44.2861 15.79C44.4328 15.53 44.5061 15.2467 44.5061 14.94C44.5061 14.1667 43.9728 13.6233 42.9061 13.31L39.1861 12.21C37.0461 11.5767 35.9761 10.34 35.9761 8.5C35.9761 7.87333 36.1028 7.30333 36.3561 6.79C36.6161 6.27667 36.9761 5.83667 37.4361 5.47C37.8961 5.10333 38.4428 4.82 39.0761 4.62C39.7161 4.42 40.4161 4.32 41.1761 4.32C41.9294 4.32 42.6194 4.41333 43.2461 4.6C43.8794 4.78667 44.4394 5.06 44.9261 5.42C45.4194 5.78 45.8328 6.22 46.1661 6.74C46.5061 7.26 46.7561 7.85667 46.9161 8.53L44.3261 8.98C44.1728 8.21333 43.8161 7.62 43.2561 7.2C42.6961 6.78 41.9894 6.57 41.1361 6.57C40.7361 6.57 40.3728 6.61667 40.0461 6.71C39.7194 6.79667 39.4428 6.92333 39.2161 7.09C38.9894 7.25 38.8128 7.44333 38.6861 7.67C38.5661 7.89 38.5061 8.13333 38.5061 8.4C38.5061 8.80667 38.6728 9.14667 39.0061 9.42C39.3394 9.69333 39.8761 9.93333 40.6161 10.14L43.1661 10.85C44.4728 11.21 45.4428 11.7133 46.0761 12.36C46.7094 13.0067 47.0261 13.8233 47.0261 14.81C47.0261 15.4767 46.8894 16.0867 46.6161 16.64C46.3428 17.1867 45.9594 17.66 45.4661 18.06C44.9728 18.4533 44.3761 18.76 43.6761 18.98C42.9828 19.1933 42.2161 19.3 41.3761 19.3ZM49.3906 19V4.6H51.8106L56.4606 14.29L61.1106 4.6H63.5306V19H61.1106V9.44L57.4806 17.02H55.4406L51.8206 9.44V19H49.3906ZM66.5242 19V4.6H75.8442V6.86H68.9442V10.41H74.6442V12.67H68.9442V16.74H75.8442V19H66.5242ZM81.533 19V6.86H77.243V4.6H88.233V6.86H83.963V19H81.533ZM90.2297 19V4.6H92.6597V19H90.2297ZM101.945 19.3C100.865 19.3 99.898 19.12 99.0447 18.76C98.198 18.3933 97.478 17.8833 96.8847 17.23C96.2914 16.57 95.838 15.78 95.5247 14.86C95.2114 13.94 95.0547 12.92 95.0547 11.8C95.0547 10.68 95.2114 9.66 95.5247 8.74C95.838 7.82 96.2914 7.03333 96.8847 6.38C97.478 5.72 98.198 5.21 99.0447 4.85C99.898 4.48333 100.865 4.3 101.945 4.3C102.771 4.3 103.531 4.40667 104.225 4.62C104.925 4.83333 105.548 5.14 106.095 5.54C106.641 5.94 107.111 6.42333 107.505 6.99C107.898 7.55667 108.205 8.19333 108.425 8.9L105.995 9.57C105.855 9.10333 105.665 8.68667 105.425 8.32C105.191 7.94667 104.905 7.63 104.565 7.37C104.231 7.11 103.845 6.91333 103.405 6.78C102.971 6.64 102.485 6.57 101.945 6.57C101.245 6.57 100.621 6.69667 100.075 6.95C99.5347 7.19667 99.078 7.55 98.7047 8.01C98.338 8.46333 98.058 9.01333 97.8647 9.66C97.678 10.3 97.5847 11.0133 97.5847 11.8C97.5847 12.5867 97.6747 13.3033 97.8547 13.95C98.0414 14.59 98.3147 15.14 98.6747 15.6C99.0414 16.0533 99.4947 16.4067 100.035 16.66C100.581 16.9067 101.218 17.03 101.945 17.03C102.485 17.03 102.971 16.9633 103.405 16.83C103.845 16.69 104.231 16.49 104.565 16.23C104.905 15.97 105.191 15.6567 105.425 15.29C105.665 14.9167 105.855 14.4967 105.995 14.03L108.425 14.7C108.205 15.4067 107.898 16.0433 107.505 16.61C107.111 17.1767 106.641 17.66 106.095 18.06C105.548 18.46 104.925 18.7667 104.225 18.98C103.531 19.1933 102.771 19.3 101.945 19.3ZM110.42 19V17.88L119.35 5.72H110.42V4.6H120.79V5.72L111.86 17.88H120.79V19H110.42ZM129.134 19.3C128.054 19.3 127.104 19.1167 126.284 18.75C125.47 18.3833 124.787 17.87 124.234 17.21C123.687 16.5433 123.274 15.75 122.994 14.83C122.72 13.91 122.584 12.9 122.584 11.8C122.584 10.7 122.72 9.69 122.994 8.77C123.274 7.85 123.687 7.06 124.234 6.4C124.787 5.73333 125.47 5.21667 126.284 4.85C127.104 4.48333 128.054 4.3 129.134 4.3C130.207 4.3 131.15 4.48333 131.964 4.85C132.784 5.21667 133.467 5.73333 134.014 6.4C134.567 7.06 134.98 7.85 135.254 8.77C135.534 9.69 135.674 10.7 135.674 11.8C135.674 12.9 135.534 13.91 135.254 14.83C134.98 15.75 134.567 16.5433 134.014 17.21C133.467 17.87 132.784 18.3833 131.964 18.75C131.15 19.1167 130.207 19.3 129.134 19.3ZM129.134 18.17C130.02 18.17 130.794 18.0133 131.454 17.7C132.12 17.3867 132.674 16.95 133.114 16.39C133.56 15.83 133.894 15.16 134.114 14.38C134.334 13.6 134.444 12.74 134.444 11.8C134.444 10.86 134.334 10 134.114 9.22C133.894 8.44 133.56 7.77 133.114 7.21C132.674 6.65 132.12 6.21333 131.454 5.9C130.794 5.58667 130.02 5.43 129.134 5.43C128.247 5.43 127.474 5.58667 126.814 5.9C126.154 6.21333 125.6 6.65 125.154 7.21C124.714 7.77 124.38 8.44 124.154 9.22C123.934 10 123.82 10.86 123.814 11.8C123.807 12.74 123.914 13.6 124.134 14.38C124.354 15.16 124.687 15.83 125.134 16.39C125.58 16.95 126.137 17.3867 126.804 17.7C127.47 18.0133 128.247 18.17 129.134 18.17ZM137.88 19V4.6H139.04L147.39 16.98V4.6H148.54V19H147.39L139.04 6.62V19H137.88ZM151.537 19V4.6H160.437V5.72H152.697V11.19H159.237V12.31H152.697V17.88H160.437V19H151.537Z" fill="#181818"/>
</g>
<defs>
<clipPath id="clip0_1_3">
<rect width="16" height="16" fill="white" transform="translate(4 4)"/>
</clipPath>
</defs>
</svg>
