<svg width="20" height="20" viewBox="0 0 20 20" fill="none" xmlns="http://www.w3.org/2000/svg">
<g id="Icons / 20 / attach">
<path id="Vector" fill-rule="evenodd" clip-rule="evenodd" d="M16.5626 4.98911C16.3251 4.75557 16.0431 4.57031 15.7328 4.44392C15.4225 4.31752 15.0899 4.25247 14.754 4.25247C14.4181 4.25247 14.0855 4.31752 13.7752 4.44392C13.4649 4.57031 13.183 4.75557 12.9455 4.98911L6.79772 11.0334C6.61138 11.223 6.50828 11.4771 6.51061 11.7408C6.51294 12.0045 6.62052 12.2567 6.81018 12.4432C6.99984 12.6296 7.2564 12.7354 7.52461 12.7377C7.79281 12.74 8.05121 12.6386 8.24413 12.4554L14.0308 6.76719L14.754 7.47822L8.96734 13.1675C8.58359 13.5447 8.06312 13.7567 7.52041 13.7567C6.97771 13.7567 6.45724 13.5447 6.07349 13.1675C5.68974 12.7902 5.47415 12.2785 5.47415 11.7449C5.47415 11.2113 5.68974 10.6996 6.07349 10.3223L12.2213 4.27808C12.8927 3.61793 13.8034 3.24706 14.753 3.24706C15.7026 3.24706 16.6133 3.61793 17.2847 4.27808C17.9562 4.93823 18.3334 5.83359 18.3334 6.76719C18.3334 7.70078 17.9562 8.59614 17.2847 9.25629L10.4138 16.0116C9.93958 16.4819 9.37558 16.8555 8.75416 17.1109C8.13273 17.3663 7.46611 17.4985 6.79257 17.5C6.11902 17.5014 5.45182 17.3721 4.82926 17.1193C4.2067 16.8666 3.64105 16.4954 3.16479 16.0272C2.68852 15.5589 2.31101 15.0028 2.05394 14.3907C1.79686 13.7787 1.66529 13.1227 1.66676 12.4605C1.66824 11.7983 1.80273 11.1429 2.06253 10.5319C2.32233 9.92097 2.70231 9.36647 3.18066 8.90028L9.69055 2.5L10.4138 3.21103L3.90387 9.61131C3.1365 10.3657 2.70541 11.389 2.70541 12.4559C2.70541 13.5229 3.1365 14.5461 3.90387 15.3006C4.67123 16.055 5.71199 16.4788 6.79721 16.4788C7.88242 16.4788 8.92319 16.055 9.69055 15.3006L16.5626 8.54426C17.042 8.07277 17.3113 7.43337 17.3113 6.76668C17.3113 6.09999 17.042 5.4606 16.5626 4.98911Z" fill="#2C2C2C"/>
</g>
</svg>
