<svg width="20" height="20" viewBox="0 0 20 20" fill="none" xmlns="http://www.w3.org/2000/svg">
<g id="Icons / 20 / calendar">
<path id="Vector" d="M13.9582 2.96699V1.66699C13.9582 1.32533 13.6749 1.04199 13.3332 1.04199C12.9915 1.04199 12.7082 1.32533 12.7082 1.66699V2.91699H7.29153V1.66699C7.29153 1.32533 7.0082 1.04199 6.66653 1.04199C6.32487 1.04199 6.04153 1.32533 6.04153 1.66699V2.96699C3.79153 3.17533 2.69987 4.51699 2.5332 6.50866C2.51653 6.75033 2.71653 6.95033 2.94987 6.95033H17.0499C17.2915 6.95033 17.4915 6.74199 17.4665 6.50866C17.2999 4.51699 16.2082 3.17533 13.9582 2.96699Z" fill="#2C2C2C"/>
<path id="Vector_2" d="M16.6667 8.2002H3.33333C2.875 8.2002 2.5 8.5752 2.5 9.03353V14.1669C2.5 16.6669 3.75 18.3335 6.66667 18.3335H13.3333C16.25 18.3335 17.5 16.6669 17.5 14.1669C17.5 11.6669 17.5 9.03353 17.5 9.03353C17.5 8.5752 17.125 8.2002 16.6667 8.2002Z" fill="#2C2C2C"/>
</g>
</svg>
