<svg width="60" height="16" viewBox="0 0 60 16" fill="none" xmlns="http://www.w3.org/2000/svg">
<g id="Frame 15" clip-path="url(#clip0_1088_2424)">
<path id="Vector" fill-rule="evenodd" clip-rule="evenodd" d="M9.20786 12.1161H6.59492C2.51943 12.1161 5.48046 3.8672 8.91159 3.8672H13.0402C13.7016 3.8672 14.8688 3.98348 15.4437 2.42337L16.3317 0H10.6708C7.60533 0 5.21887 1.02892 3.49474 2.75546C0.51616 5.70922 -0.494251 10.3234 0.219472 12.5306C0.898929 14.5725 2.74508 15.9168 5.63674 15.9498L7.88363 15.9666H10.6533L11.3323 14.0246C11.8379 12.6469 10.7059 12.1161 9.20786 12.1161ZM41.0132 8.69723L41.8665 6.05804H32.7569C31.2413 6.05804 30.5623 6.45622 30.3011 7.28645L29.4474 9.92524H38.557C40.0726 9.92524 40.7516 9.52705 41.0132 8.69723ZM28.0885 13.3445L27.2352 15.9837H36.3448C37.8428 15.9837 38.5399 15.5855 38.801 14.7553L39.6543 12.1165H30.5447C29.0467 12.1165 28.3672 12.5147 28.0885 13.3445ZM43.1389 2.65552L43.9926 0.0163257H34.8831C33.3675 0.0163257 32.688 0.414514 32.4268 1.24474L31.5723 3.88393H40.6819C42.1803 3.88393 42.8594 3.48574 43.1381 2.65552M29.3776 3.1867C28.9949 0.729879 27.6192 0.0163257 24.2746 0.0163257H18.1779L14.6251 9.92524H16.872C18.2134 9.92524 18.8924 9.94196 19.6066 8.11627L21.0871 3.8672H23.3515C25.285 3.8672 24.8496 6.17431 23.8739 8.41491C23.003 10.3899 21.4878 12.1328 19.6588 12.1328H15.8792C14.3635 12.1328 13.667 12.531 13.3882 13.3612L12.4476 16H15.2173L17.9342 15.9837C20.3383 15.967 22.3064 15.8009 24.6055 13.8259C27.0442 11.7179 29.8653 6.3069 29.3776 3.1867ZM60 0H54.7223L49.758 5.02912C49.183 5.61007 48.5909 6.19103 48.0159 6.87153H47.9637L50.4366 0H46.1346L40.3346 15.9833H44.6366L46.4827 10.9542L48.3987 9.41078L49.9143 13.9585C50.3844 15.3697 50.8725 15.9837 51.9176 15.9837H55.2095L51.8302 7.05391L60 0Z" fill="#1AB248"/>
</g>
<defs>
<clipPath id="clip0_1088_2424">
<rect width="60" height="16" fill="white"/>
</clipPath>
</defs>
</svg>
