<svg width="24" height="24" viewBox="0 0 24 24" fill="none" xmlns="http://www.w3.org/2000/svg">
<g id="Icons / 24 / Delivery">
<path id="Vector" d="M12 14H13C14.1 14 15 13.1 15 12M15 12V2H6C4.5 2 3.19001 2.82999 2.51001 4.04999M15 12V5H16.84C17.56 5 18.22 5.39001 18.58 6.01001L20.29 9M2 17C2 18.66 3.34 20 5 20H6M6 20C6 18.9 6.9 18 8 18M6 20C6 21.1046 6.89543 22 8 22C9.10457 22 10 21.1046 10 20M6 20C6 18.8954 6.89543 18 8 18M8 18C9.1 18 10 18.9 10 20M8 18C9.10457 18 10 18.8954 10 20M10 20H14M14 20C14 18.9 14.9 18 16 18M14 20C14 21.1046 14.8954 22 16 22C17.1046 22 18 21.1046 18 20M14 20C14 18.8954 14.8954 18 16 18M16 18C17.1 18 18 18.9 18 20M16 18C17.1046 18 18 18.8954 18 20M18 20H19C20.66 20 22 18.66 22 17V14M22 14H19C18.45 14 18 13.55 18 13V10C18 9.45 18.45 9 19 9H20.29M22 14V12L20.29 9M2 8H8M2 11H6M2 14H4" stroke="#181818" stroke-width="1.5" stroke-linecap="round" stroke-linejoin="round"/>
</g>
</svg>
