<svg width="24" height="24" viewBox="0 0 24 24" fill="none" xmlns="http://www.w3.org/2000/svg">
<path d="M15.822 22H20.385C21.6164 22 22.5806 20.9073 22.4947 19.614L21.5496 5.95986M9.7889 6.34082L10.7817 2.01003M16.1848 6.35085L17.0821 2M7.8988 11.9749H15.5356M6.9442 15.9849H14.581M21.4828 6.72178L18.2658 20.2857C18.0367 21.2983 17.1775 22 16.1847 22H3.64123C2.19978 22 1.16882 20.5162 1.5984 19.0626L5.61727 5.50878C5.89411 4.56642 6.72462 3.9147 7.66014 3.9147H19.4018C20.3086 3.9147 21.0628 4.49616 21.3778 5.29817C21.5592 5.72925 21.5973 6.22052 21.4828 6.72178Z" stroke="#2C2C2C" stroke-width="1.5" stroke-linecap="round" stroke-linejoin="round"/>
</svg>
