<svg width="20" height="20" viewBox="0 0 20 20" fill="none" xmlns="http://www.w3.org/2000/svg">
<g id="Status">
<path id="Vector" d="M10 2C5.592 2 2 5.592 2 10C2 14.408 5.592 18 10 18C14.408 18 18 14.408 18 10C18 5.592 14.408 2 10 2ZM12.688 11.84C12.92 12.072 12.92 12.456 12.688 12.688C12.568 12.808 12.416 12.864 12.264 12.864C12.112 12.864 11.96 12.808 11.84 12.688L10 10.848L8.16 12.688C8.04 12.808 7.888 12.864 7.736 12.864C7.584 12.864 7.432 12.808 7.312 12.688C7.08 12.456 7.08 12.072 7.312 11.84L9.152 10L7.312 8.16C7.08 7.928 7.08 7.544 7.312 7.312C7.544 7.08 7.928 7.08 8.16 7.312L10 9.152L11.84 7.312C12.072 7.08 12.456 7.08 12.688 7.312C12.92 7.544 12.92 7.928 12.688 8.16L10.848 10L12.688 11.84Z" fill="#F7553F"/>
</g>
</svg>
