<svg width="20" height="20" viewBox="0 0 20 20" fill="none" xmlns="http://www.w3.org/2000/svg">
<path d="M16.4868 8.552H14.2813C12.4726 8.552 10.9997 7.008 10.9997 5.112V2.8C10.9997 2.36 10.6563 2 10.2366 2H7.00079C4.65026 2 2.75 3.6 2.75 6.456V13.544C2.75 16.4 4.65026 18 7.00079 18H12.9992C15.3497 18 17.25 16.4 17.25 13.544V9.352C17.25 8.912 16.9066 8.552 16.4868 8.552Z" fill="#A4A4A4"/>
<path d="M12.9 2.168C12.5871 1.84 12.0453 2.064 12.0453 2.52V5.312C12.0453 6.48 12.9916 7.448 14.1439 7.448C14.8689 7.456 15.8763 7.456 16.7387 7.456C17.1737 7.456 17.4026 6.92 17.0974 6.6C15.9984 5.44 14.0295 3.352 12.9 2.168Z" fill="#A4A4A4"/>
</svg>
