<svg width="40" height="40" viewBox="0 0 40 40" fill="none" xmlns="http://www.w3.org/2000/svg">
<g id="Icons / 24 / gallery-add">
<path id="Vector" d="M21.6668 3.33301H15.0002C6.66683 3.33301 3.3335 6.66634 3.3335 14.9997V24.9997C3.3335 33.333 6.66683 36.6663 15.0002 36.6663H25.0002C33.3335 36.6663 36.6668 33.333 36.6668 24.9997V16.6663M26.2502 8.33301H35.4168M30.8335 12.9163V3.74967M4.45016 31.583L12.6668 26.0663C13.9835 25.183 15.8835 25.283 17.0668 26.2997L17.6168 26.783C18.9168 27.8997 21.0168 27.8997 22.3168 26.783L29.2502 20.833C30.5502 19.7163 32.6502 19.7163 33.9502 20.833L36.6668 23.1663M18.3335 13.333C18.3335 15.174 16.8411 16.6663 15.0002 16.6663C13.1592 16.6663 11.6668 15.174 11.6668 13.333C11.6668 11.4921 13.1592 9.99967 15.0002 9.99967C16.8411 9.99967 18.3335 11.4921 18.3335 13.333Z" stroke="#2C2C2C" stroke-width="2" stroke-linecap="round" stroke-linejoin="round"/>
</g>
</svg>
