<svg width="45" height="44" viewBox="0 0 45 44" fill="none" xmlns="http://www.w3.org/2000/svg">
<path d="M40.8334 38.9583H4.16675C3.41508 38.9583 2.79175 39.5817 2.79175 40.3333C2.79175 41.085 3.41508 41.7083 4.16675 41.7083H40.8334C41.5851 41.7083 42.2084 41.085 42.2084 40.3333C42.2084 39.5817 41.5851 38.9583 40.8334 38.9583Z" fill="#2C2C2C"/>
<path opacity="0.25" d="M31.6667 3.66666H13.3333C7.83333 3.66666 6 6.94832 6 11V40.3333H39V11C39 6.94832 37.1667 3.66666 31.6667 3.66666Z" fill="#2C2C2C"/>
<path d="M26.2767 27.5H18.705C17.77 27.5 16.9817 28.27 16.9817 29.2233V40.3333H27.9817V29.2233C28 28.27 27.23 27.5 26.2767 27.5Z" fill="#2C2C2C"/>
<path d="M27.0834 14.2083H23.8751V11C23.8751 10.2483 23.2517 9.625 22.5001 9.625C21.7484 9.625 21.1251 10.2483 21.1251 11V14.2083H17.9167C17.1651 14.2083 16.5417 14.8317 16.5417 15.5833C16.5417 16.335 17.1651 16.9583 17.9167 16.9583H21.1251V20.1667C21.1251 20.9183 21.7484 21.5417 22.5001 21.5417C23.2517 21.5417 23.8751 20.9183 23.8751 20.1667V16.9583H27.0834C27.8351 16.9583 28.4584 16.335 28.4584 15.5833C28.4584 14.8317 27.8351 14.2083 27.0834 14.2083Z" fill="#2C2C2C"/>
</svg>
