<svg width="20" height="20" viewBox="0 0 20 20" fill="none" xmlns="http://www.w3.org/2000/svg">
<g id="Icons / 20 / location">
<path id="Subtract" fill-rule="evenodd" clip-rule="evenodd" d="M10.0045 1C13.1955 1 16.8282 2.82634 17.7747 6.88293C18.8293 11.4137 15.9809 15.242 13.4028 17.6566C12.4563 18.5522 11.2304 19 10.0045 19C8.77859 19 7.55267 18.5522 6.59717 17.6566C4.01914 15.242 1.17068 11.4049 2.22533 6.87415C3.17181 2.81756 6.81351 1 9.99549 1H10.0045ZM12.844 8.5161C12.844 10.0436 11.5727 11.282 10.0045 11.282C8.43633 11.282 7.16506 10.0436 7.16506 8.5161C7.16506 6.98856 8.43633 5.75024 10.0045 5.75024C11.5727 5.75024 12.844 6.98856 12.844 8.5161Z" fill="#2C2C2C"/>
</g>
</svg>
