<svg width="156" height="16" viewBox="0 0 156 16" fill="none" xmlns="http://www.w3.org/2000/svg">
<path d="M6.99 15.3C5.91 15.3 4.94333 15.12 4.09 14.76C3.24333 14.3933 2.52333 13.8833 1.93 13.23C1.33667 12.57 0.883333 11.78 0.57 10.86C0.256667 9.94 0.1 8.92 0.1 7.8C0.1 6.68 0.256667 5.66 0.57 4.74C0.883333 3.82 1.33667 3.03333 1.93 2.38C2.52333 1.72 3.24333 1.21 4.09 0.849999C4.94333 0.483333 5.91 0.3 6.99 0.3C7.81667 0.3 8.57667 0.406666 9.27 0.619999C9.97 0.833333 10.5933 1.14 11.14 1.54C11.6867 1.94 12.1567 2.42333 12.55 2.99C12.9433 3.55667 13.25 4.19333 13.47 4.9L11.04 5.57C10.9 5.10333 10.71 4.68667 10.47 4.32C10.2367 3.94667 9.95 3.63 9.61 3.37C9.27667 3.11 8.89 2.91333 8.45 2.78C8.01667 2.64 7.53 2.57 6.99 2.57C6.29 2.57 5.66667 2.69667 5.12 2.95C4.58 3.19667 4.12333 3.55 3.75 4.01C3.38333 4.46333 3.10333 5.01333 2.91 5.66C2.72333 6.3 2.63 7.01333 2.63 7.8C2.63 8.58667 2.72 9.30333 2.9 9.95C3.08667 10.59 3.36 11.14 3.72 11.6C4.08667 12.0533 4.54 12.4067 5.08 12.66C5.62667 12.9067 6.26333 13.03 6.99 13.03C7.53 13.03 8.01667 12.9633 8.45 12.83C8.89 12.69 9.27667 12.49 9.61 12.23C9.95 11.97 10.2367 11.6567 10.47 11.29C10.71 10.9167 10.9 10.4967 11.04 10.03L13.47 10.7C13.25 11.4067 12.9433 12.0433 12.55 12.61C12.1567 13.1767 11.6867 13.66 11.14 14.06C10.5933 14.46 9.97 14.7667 9.27 14.98C8.57667 15.1933 7.81667 15.3 6.99 15.3ZM21.9556 15.3C20.8756 15.3 19.909 15.12 19.0556 14.76C18.209 14.3933 17.489 13.8833 16.8956 13.23C16.3023 12.57 15.849 11.78 15.5356 10.86C15.2223 9.94 15.0656 8.92 15.0656 7.8C15.0656 6.68 15.2223 5.66 15.5356 4.74C15.849 3.82 16.3023 3.03333 16.8956 2.38C17.489 1.72 18.209 1.21 19.0556 0.849999C19.909 0.483333 20.8756 0.3 21.9556 0.3C23.0356 0.3 24.0023 0.483333 24.8556 0.849999C25.709 1.21 26.4323 1.72 27.0256 2.38C27.619 3.03333 28.0723 3.82 28.3856 4.74C28.699 5.66 28.8556 6.68 28.8556 7.8C28.8556 8.92 28.699 9.94 28.3856 10.86C28.0723 11.78 27.619 12.57 27.0256 13.23C26.4323 13.8833 25.709 14.3933 24.8556 14.76C24.0023 15.12 23.0356 15.3 21.9556 15.3ZM21.9556 13.03C22.6823 13.03 23.3156 12.9067 23.8556 12.66C24.4023 12.4067 24.8556 12.0533 25.2156 11.6C25.5823 11.14 25.8556 10.59 26.0356 9.95C26.2156 9.30333 26.3056 8.58667 26.3056 7.8C26.3056 7.01333 26.2156 6.3 26.0356 5.66C25.8556 5.01333 25.5823 4.46333 25.2156 4.01C24.8556 3.55 24.4023 3.19667 23.8556 2.95C23.3156 2.69667 22.6823 2.57 21.9556 2.57C21.229 2.57 20.5956 2.69667 20.0556 2.95C19.5156 3.19667 19.0656 3.55 18.7056 4.01C18.3456 4.46333 18.0723 5.01333 17.8856 5.66C17.7056 6.3 17.6156 7.01333 17.6156 7.8C17.6156 8.58667 17.7056 9.30333 17.8856 9.95C18.0656 10.59 18.3356 11.14 18.6956 11.6C19.0556 12.0533 19.5056 12.4067 20.0456 12.66C20.5923 12.9067 21.229 13.03 21.9556 13.03ZM36.3761 15.3C35.5761 15.3 34.8361 15.1933 34.1561 14.98C33.4761 14.7667 32.8761 14.4633 32.3561 14.07C31.8428 13.67 31.4194 13.19 31.0861 12.63C30.7528 12.07 30.5294 11.44 30.4161 10.74L32.9161 10.36C33.1294 11.2467 33.5394 11.9167 34.1461 12.37C34.7594 12.8167 35.5528 13.04 36.5261 13.04C36.9594 13.04 37.3561 12.99 37.7161 12.89C38.0828 12.7833 38.3994 12.6367 38.6661 12.45C38.9328 12.2633 39.1394 12.0433 39.2861 11.79C39.4328 11.53 39.5061 11.2467 39.5061 10.94C39.5061 10.1667 38.9728 9.62333 37.9061 9.31L34.1861 8.21C32.0461 7.57667 30.9761 6.34 30.9761 4.5C30.9761 3.87333 31.1028 3.30333 31.3561 2.79C31.6161 2.27667 31.9761 1.83667 32.4361 1.47C32.8961 1.10333 33.4428 0.819999 34.0761 0.619999C34.7161 0.419999 35.4161 0.319999 36.1761 0.319999C36.9294 0.319999 37.6194 0.413333 38.2461 0.599999C38.8794 0.786666 39.4394 1.06 39.9261 1.42C40.4194 1.78 40.8328 2.22 41.1661 2.74C41.5061 3.26 41.7561 3.85667 41.9161 4.53L39.3261 4.98C39.1728 4.21333 38.8161 3.62 38.2561 3.2C37.6961 2.78 36.9894 2.57 36.1361 2.57C35.7361 2.57 35.3728 2.61667 35.0461 2.71C34.7194 2.79667 34.4428 2.92333 34.2161 3.09C33.9894 3.25 33.8128 3.44333 33.6861 3.67C33.5661 3.89 33.5061 4.13333 33.5061 4.4C33.5061 4.80667 33.6728 5.14667 34.0061 5.42C34.3394 5.69333 34.8761 5.93333 35.6161 6.14L38.1661 6.85C39.4728 7.21 40.4428 7.71333 41.0761 8.36C41.7094 9.00667 42.0261 9.82333 42.0261 10.81C42.0261 11.4767 41.8894 12.0867 41.6161 12.64C41.3428 13.1867 40.9594 13.66 40.4661 14.06C39.9728 14.4533 39.3761 14.76 38.6761 14.98C37.9828 15.1933 37.2161 15.3 36.3761 15.3ZM44.3906 15V0.599999H46.8106L51.4606 10.29L56.1106 0.599999H58.5306V15H56.1106V5.44L52.4806 13.02H50.4406L46.8206 5.44V15H44.3906ZM61.5242 15V0.599999H70.8442V2.86H63.9442V6.41H69.6442V8.67H63.9442V12.74H70.8442V15H61.5242ZM76.533 15V2.86H72.243V0.599999H83.233V2.86H78.963V15H76.533ZM85.2297 15V0.599999H87.6597V15H85.2297ZM96.9447 15.3C95.8647 15.3 94.898 15.12 94.0447 14.76C93.198 14.3933 92.478 13.8833 91.8847 13.23C91.2914 12.57 90.838 11.78 90.5247 10.86C90.2114 9.94 90.0547 8.92 90.0547 7.8C90.0547 6.68 90.2114 5.66 90.5247 4.74C90.838 3.82 91.2914 3.03333 91.8847 2.38C92.478 1.72 93.198 1.21 94.0447 0.849999C94.898 0.483333 95.8647 0.3 96.9447 0.3C97.7714 0.3 98.5314 0.406666 99.2247 0.619999C99.9247 0.833333 100.548 1.14 101.095 1.54C101.641 1.94 102.111 2.42333 102.505 2.99C102.898 3.55667 103.205 4.19333 103.425 4.9L100.995 5.57C100.855 5.10333 100.665 4.68667 100.425 4.32C100.191 3.94667 99.9047 3.63 99.5647 3.37C99.2314 3.11 98.8447 2.91333 98.4047 2.78C97.9714 2.64 97.4847 2.57 96.9447 2.57C96.2447 2.57 95.6214 2.69667 95.0747 2.95C94.5347 3.19667 94.078 3.55 93.7047 4.01C93.338 4.46333 93.058 5.01333 92.8647 5.66C92.678 6.3 92.5847 7.01333 92.5847 7.8C92.5847 8.58667 92.6747 9.30333 92.8547 9.95C93.0414 10.59 93.3147 11.14 93.6747 11.6C94.0414 12.0533 94.4947 12.4067 95.0347 12.66C95.5814 12.9067 96.218 13.03 96.9447 13.03C97.4847 13.03 97.9714 12.9633 98.4047 12.83C98.8447 12.69 99.2314 12.49 99.5647 12.23C99.9047 11.97 100.191 11.6567 100.425 11.29C100.665 10.9167 100.855 10.4967 100.995 10.03L103.425 10.7C103.205 11.4067 102.898 12.0433 102.505 12.61C102.111 13.1767 101.641 13.66 101.095 14.06C100.548 14.46 99.9247 14.7667 99.2247 14.98C98.5314 15.1933 97.7714 15.3 96.9447 15.3ZM105.42 15V13.88L114.35 1.72H105.42V0.599999H115.79V1.72L106.86 13.88H115.79V15H105.42ZM124.134 15.3C123.054 15.3 122.104 15.1167 121.284 14.75C120.47 14.3833 119.787 13.87 119.234 13.21C118.687 12.5433 118.274 11.75 117.994 10.83C117.72 9.91 117.584 8.9 117.584 7.8C117.584 6.7 117.72 5.69 117.994 4.77C118.274 3.85 118.687 3.06 119.234 2.4C119.787 1.73333 120.47 1.21667 121.284 0.849999C122.104 0.483333 123.054 0.3 124.134 0.3C125.207 0.3 126.15 0.483333 126.964 0.849999C127.784 1.21667 128.467 1.73333 129.014 2.4C129.567 3.06 129.98 3.85 130.254 4.77C130.534 5.69 130.674 6.7 130.674 7.8C130.674 8.9 130.534 9.91 130.254 10.83C129.98 11.75 129.567 12.5433 129.014 13.21C128.467 13.87 127.784 14.3833 126.964 14.75C126.15 15.1167 125.207 15.3 124.134 15.3ZM124.134 14.17C125.02 14.17 125.794 14.0133 126.454 13.7C127.12 13.3867 127.674 12.95 128.114 12.39C128.56 11.83 128.894 11.16 129.114 10.38C129.334 9.6 129.444 8.74 129.444 7.8C129.444 6.86 129.334 6 129.114 5.22C128.894 4.44 128.56 3.77 128.114 3.21C127.674 2.65 127.12 2.21333 126.454 1.9C125.794 1.58667 125.02 1.43 124.134 1.43C123.247 1.43 122.474 1.58667 121.814 1.9C121.154 2.21333 120.6 2.65 120.154 3.21C119.714 3.77 119.38 4.44 119.154 5.22C118.934 6 118.82 6.86 118.814 7.8C118.807 8.74 118.914 9.6 119.134 10.38C119.354 11.16 119.687 11.83 120.134 12.39C120.58 12.95 121.137 13.3867 121.804 13.7C122.47 14.0133 123.247 14.17 124.134 14.17ZM132.88 15V0.599999H134.04L142.39 12.98V0.599999H143.54V15H142.39L134.04 2.62V15H132.88ZM146.537 15V0.599999H155.437V1.72H147.697V7.19H154.237V8.31H147.697V13.88H155.437V15H146.537Z" fill="#181818"/>
</svg>
