<svg width="129" height="26" viewBox="0 0 129 26" fill="none" xmlns="http://www.w3.org/2000/svg">
<path d="M10.87 9.51218C16.8449 9.51218 19.7243 12.8238 19.7243 17.6152C19.7243 22.336 16.9169 25.6477 10.87 25.6477H0V0.775055H18.3566V6.48237H6.19085V9.58264H10.87V9.51218ZM10.942 19.9404C13.0296 19.9404 13.8214 19.0244 13.8214 17.6152C13.8214 16.2059 13.0296 15.29 10.942 15.29H6.19085V19.9404H10.942Z" fill="white"/>
<path d="M31.1691 25.6477L33.6166 19.3767L25.9141 0.775055H32.3929L37 11.626L41.5352 0.775055H48.1579L37.7919 25.6477H31.1691Z" fill="white"/>
<path d="M57.5887 25.6477H50.75L61.1161 0.775055H64.7874L75.0095 25.6477H68.1707L62.8437 11.8374L57.5887 25.6477Z" fill="white"/>
<path d="M122.451 25.6477H116.26V6.41191H109.781V0.775055H129.002V6.48237H122.523V25.6477H122.451Z" fill="white"/>
<path d="M93.1523 9.23035L107.766 26L93.1523 0L78.5391 26L93.1523 9.23035Z" fill="white"/>
<path d="M93.154 24.5203L99.7768 26L93.154 19.4471L86.5312 26L93.154 24.5203Z" fill="#EA2839"/>
</svg>
