<svg width="32" height="32" viewBox="0 0 32 32" fill="none" xmlns="http://www.w3.org/2000/svg">
<g clip-path="url(#clip0_551_6981)">
<path d="M25.6406 21.7578V29.6563C25.6406 30.6918 24.8012 31.5313 23.7656 31.5313H8.23438C7.19881 31.5313 6.35938 30.6918 6.35938 29.6563V21.7578M6.35938 10.2422V2.34375C6.35938 1.30819 7.19881 0.46875 8.23438 0.46875H23.7656C24.8012 0.46875 25.6406 1.30819 25.6406 2.34375V10.2422M21.8906 0.46875C21.582 0.468739 21.278 0.544942 21.0059 0.690596C20.7337 0.836249 20.5018 1.04684 20.3306 1.30369L19.5688 2.44631C19.3975 2.70315 19.1656 2.91375 18.8934 3.0594C18.6213 3.20506 18.3174 3.28126 18.0087 3.28125H13.9913C13.6826 3.28126 13.3787 3.20505 13.1066 3.0594C12.8344 2.91374 12.6024 2.70315 12.4312 2.44631L11.6694 1.30369C11.4982 1.04684 11.2663 0.836249 10.9941 0.690596C10.722 0.544942 10.4181 0.468739 10.1094 0.46875M6.35938 26.8438C6.35938 27.8793 7.19881 28.7188 8.23438 28.7188H23.7656C24.8012 28.7188 25.6406 27.8793 25.6406 26.8438M12.1172 18.0078V13.9922C12.1172 12.9566 12.9566 12.1172 13.9922 12.1172H18.0078C19.0434 12.1172 19.8828 12.9566 19.8828 13.9922V18.0078C19.8828 19.0434 19.0434 19.8828 18.0078 19.8828H13.9922C12.9566 19.8828 12.1172 19.0434 12.1172 18.0078ZM2.47656 18.0078V13.9922C2.47656 12.9566 3.316 12.1172 4.35156 12.1172H8.36719C9.40275 12.1172 10.2422 12.9566 10.2422 13.9922V18.0078C10.2422 19.0434 9.40275 19.8828 8.36719 19.8828H4.35156C3.316 19.8828 2.47656 19.0434 2.47656 18.0078ZM21.7578 18.0078V13.9922C21.7578 12.9566 22.5973 12.1172 23.6328 12.1172H27.6484C28.684 12.1172 29.5234 12.9566 29.5234 13.9922V18.0078C29.5234 19.0434 28.684 19.8828 27.6484 19.8828H23.6328C22.5973 19.8828 21.7578 19.0434 21.7578 18.0078Z" stroke="#2C2C2C" stroke-width="1.5" stroke-miterlimit="10" stroke-linecap="round" stroke-linejoin="round"/>
</g>
<defs>
<clipPath id="clip0_551_6981">
<rect width="32" height="32" fill="white"/>
</clipPath>
</defs>
</svg>
