<svg width="32" height="32" viewBox="0 0 32 32" fill="none" xmlns="http://www.w3.org/2000/svg">
<g clip-path="url(#clip0_551_6972)">
<path d="M12.8231 20.214L14.9972 21.8936C15.2821 22.1785 15.9119 22.3135 16.3318 22.3135H18.9857C19.8254 22.3135 20.7401 21.6837 20.95 20.8439L22.6294 15.7151C22.9742 14.7404 22.3445 13.8856 21.2949 13.8856H18.491C18.0711 13.8856 17.7262 13.5408 17.7862 13.0459L18.1311 10.7965C18.266 10.1667 17.8462 9.46179 17.2164 9.25184C16.6616 9.04189 15.9569 9.32676 15.672 9.74665L12.7931 14.0205M14.1126 1.66358C15.1472 0.778805 16.8415 0.778805 17.8911 1.66358L20.2603 3.70324C20.7101 4.09314 21.5498 4.40802 22.1495 4.40802H24.6986C26.288 4.40802 27.5925 5.71259 27.5925 7.30219V9.85166C27.5925 10.4365 27.9074 11.2913 28.2972 11.7412L30.3365 14.1105C31.2212 15.1453 31.2212 16.8399 30.3365 17.8896L28.2972 20.259C27.9074 20.7089 27.5925 21.5487 27.5925 22.1485V24.698C27.5925 26.2876 26.288 27.5922 24.6986 27.5922H22.1495C21.5648 27.5922 20.7101 27.907 20.2603 28.2969L17.8911 30.3364C16.8565 31.2212 15.1622 31.2212 14.1126 30.3364L11.7435 28.2969C11.2937 27.907 10.454 27.5922 9.85418 27.5922H7.26014C5.67073 27.5922 4.36623 26.2876 4.36623 24.698V22.1335C4.36623 21.5487 4.05136 20.7089 3.6765 20.259L1.65226 17.8746C0.782582 16.8399 0.782582 15.1603 1.65226 14.1256L3.6765 11.7412C4.05136 11.2913 4.36623 10.4515 4.36623 9.86668V7.30219C4.36623 5.71259 5.67073 4.40802 7.26014 4.40802H9.85418C10.439 4.40802 11.2937 4.09314 11.7435 3.70324L14.1126 1.66358ZM9.2394 20.214V13.3457C9.2394 12.356 9.65925 12.011 10.6489 12.011H11.3536C12.3282 12.011 12.7631 12.356 12.7631 13.3457V20.214C12.7631 21.1887 12.3432 21.5486 11.3536 21.5486H10.6489C9.65925 21.5486 9.2394 21.2037 9.2394 20.214Z" stroke="#2C2C2C" stroke-width="1.5" stroke-miterlimit="10" stroke-linecap="round" stroke-linejoin="round"/>
</g>
<defs>
<clipPath id="clip0_551_6972">
<rect width="32" height="32" fill="white"/>
</clipPath>
</defs>
</svg>
