<svg width="32" height="32" viewBox="0 0 32 32" fill="none" xmlns="http://www.w3.org/2000/svg">
<path d="M30 15.4925V17.8656C30 20.0423 28.2318 21.8068 26.0525 21.8068H21.8556V26.1517C21.8556 28.3503 20.0456 30.0308 17.8446 29.9996H14.8612M21.8781 24.0714L18.7949 24.5882L15.9961 25.9797L13.1982 24.5853L10.1145 24.0684L8.67109 21.2984L6.48261 19.0685L6.94113 15.9802L6.48546 12.8917L8.6733 10.6623L10.1218 7.89565L13.205 7.37879L16.0038 5.98734L18.8017 7.38169L21.8855 7.89861L23.3289 10.6685L25.5173 12.8985L25.0588 15.9868L25.5145 19.0753L23.0816 21.7728M13.4314 15.8517L15.1778 17.596L18.6106 14.1672M19.9646 29.9671H6.34221C3.94408 29.9671 2 28.0253 2 25.63V6.3371C2 3.9418 3.94408 2 6.34221 2H25.6578C28.0559 2 30 3.9418 30 6.3371V19.9434C30 25.4793 25.507 29.9671 19.9646 29.9671ZM21.7888 15.9835C21.7888 19.1769 19.1971 21.7655 16 21.7655C12.8029 21.7655 10.2111 19.1769 10.2111 15.9835C10.2111 12.7902 12.8029 10.2015 16 10.2015C19.1971 10.2015 21.7888 12.7902 21.7888 15.9835Z" stroke="#2C2C2C" stroke-width="1.5" stroke-miterlimit="10" stroke-linecap="round" stroke-linejoin="round"/>
</svg>
