<svg width="32" height="32" viewBox="0 0 32 32" fill="none" xmlns="http://www.w3.org/2000/svg">
<path d="M2.00063 14.1237H11.2802C12.1638 14.1237 12.8802 14.7699 12.8802 15.567V23.9381C12.8802 24.7352 12.1638 25.3815 11.2802 25.3815H2.00063M13.8408 6.61797V9.50554L16.9737 10.5928C17.593 10.8072 18 11.343 18 11.9402V15.2221M18 20.2228V28.5569C18 29.3542 17.2841 30 16.4003 30H3.60126C2.71748 30 2 29.3542 2 28.5569V11.9402C2 11.343 2.40863 10.8072 3.02633 10.5928L6.16076 9.50554V6.61797M14.3201 6.61854H5.68038C5.34093 6.61854 5.01538 6.4969 4.77535 6.28037C4.53532 6.06384 4.40048 5.77016 4.40048 5.46394V3.1546C4.40048 2.84838 4.53532 2.55471 4.77535 2.33818C5.01538 2.12165 5.34093 2 5.68038 2H14.3201C14.4882 2 14.6546 2.02987 14.8099 2.08789C14.9652 2.14591 15.1063 2.23096 15.2251 2.33818C15.344 2.44539 15.4383 2.57267 15.5026 2.71276C15.5669 2.85284 15.6 3.00297 15.6 3.1546V5.46394C15.6 5.61557 15.5669 5.76571 15.5026 5.90579C15.4383 6.04587 15.344 6.17315 15.2251 6.28037C15.1063 6.38758 14.9652 6.47263 14.8099 6.53065C14.6546 6.58868 14.4882 6.61854 14.3201 6.61854Z" stroke="#2C2C2C" stroke-width="1.5" stroke-miterlimit="10" stroke-linecap="round" stroke-linejoin="round"/>
<path d="M22.5 27.0714C22.5 25.1 24.1 23.5 26.0714 23.5C24.1 23.5 22.5 21.9 22.5 19.9286C22.5 21.9 20.9 23.5 18.9286 23.5C20.9 23.5 22.5 25.1 22.5 27.0714Z" fill="white"/>
<path fill-rule="evenodd" clip-rule="evenodd" d="M22.5 27.0714C22.5 25.1 24.1 23.5 26.0714 23.5C24.1 23.5 22.5 21.9 22.5 19.9286C22.5 21.9 20.9 23.5 18.9286 23.5C20.9 23.5 22.5 25.1 22.5 27.0714Z" fill="white"/>
<path fill-rule="evenodd" clip-rule="evenodd" d="M30 23.5C30 24.9 29.6 26.2429 28.9143 27.3572C28.5143 28.0429 28.0143 28.6429 27.4286 29.1286C26.1143 30.3 24.4 31 22.5 31C20.8571 31 19.3428 30.4714 18.1143 29.5714C17.3 28.9857 16.6143 28.2286 16.0857 27.3572C15.4 26.2429 15 24.9 15 23.5C15 21.1429 16.0857 19.0142 17.8143 17.6571C19.1 16.6142 20.7429 16 22.5 16C24.2571 16 25.8714 16.6 27.1429 17.6143C28.8857 18.9857 30 21.1143 30 23.5ZM26.0714 23.5C24.1 23.5 22.5 25.1 22.5 27.0714C22.5 25.1 20.9 23.5 18.9286 23.5C20.9 23.5 22.5 21.9 22.5 19.9286C22.5 21.9 24.1 23.5 26.0714 23.5Z" fill="white"/>
<path d="M22.5 27.0714C22.5 25.1 24.1 23.5 26.0714 23.5C24.1 23.5 22.5 21.9 22.5 19.9286C22.5 21.9 20.9 23.5 18.9286 23.5C20.9 23.5 22.5 25.1 22.5 27.0714Z" stroke="#2C2C2C" stroke-width="1.5" stroke-miterlimit="10" stroke-linecap="round" stroke-linejoin="round"/>
<path fill-rule="evenodd" clip-rule="evenodd" d="M22.5 27.0714C22.5 25.1 24.1 23.5 26.0714 23.5C24.1 23.5 22.5 21.9 22.5 19.9286C22.5 21.9 20.9 23.5 18.9286 23.5C20.9 23.5 22.5 25.1 22.5 27.0714Z" stroke="#2C2C2C" stroke-width="1.5" stroke-miterlimit="10" stroke-linecap="round" stroke-linejoin="round"/>
<path fill-rule="evenodd" clip-rule="evenodd" d="M30 23.5C30 24.9 29.6 26.2429 28.9143 27.3572C28.5143 28.0429 28.0143 28.6429 27.4286 29.1286C26.1143 30.3 24.4 31 22.5 31C20.8571 31 19.3428 30.4714 18.1143 29.5714C17.3 28.9857 16.6143 28.2286 16.0857 27.3572C15.4 26.2429 15 24.9 15 23.5C15 21.1429 16.0857 19.0142 17.8143 17.6571C19.1 16.6142 20.7429 16 22.5 16C24.2571 16 25.8714 16.6 27.1429 17.6143C28.8857 18.9857 30 21.1143 30 23.5ZM26.0714 23.5C24.1 23.5 22.5 25.1 22.5 27.0714C22.5 25.1 20.9 23.5 18.9286 23.5C20.9 23.5 22.5 21.9 22.5 19.9286C22.5 21.9 24.1 23.5 26.0714 23.5Z" stroke="#2C2C2C" stroke-width="1.5" stroke-miterlimit="10" stroke-linecap="round" stroke-linejoin="round"/>
</svg>
