<svg width="32" height="25" viewBox="0 0 32 25" fill="none" xmlns="http://www.w3.org/2000/svg">
<g clip-path="url(#clip0_751_343)">
<path fill-rule="evenodd" clip-rule="evenodd" d="M2.89626 7.01094C1.93014 7.01234 0.965277 7.01375 0.000410363 7.01023C-0.000214377 10.3414 -0.000214377 13.6718 0.0010351 17.0029C0.382655 17.0006 0.764166 17.0013 1.14566 17.002C1.67973 17.003 2.21377 17.004 2.74802 16.9966C2.74547 15.8458 2.74589 14.695 2.74632 13.5442C2.74662 12.7222 2.74692 11.9002 2.74614 11.0782C2.83735 10.984 3.00603 10.9896 3.02915 11.1506C3.40377 12.4771 3.77406 13.8049 4.14433 15.1327C4.31806 15.7557 4.49179 16.3787 4.66597 17.0015C4.89173 17.0005 5.11756 17.0015 5.34342 17.0025C5.7657 17.0044 6.18806 17.0062 6.61016 16.9952C7.02172 15.5008 7.44024 14.0085 7.8587 12.5163C7.98716 12.0583 8.11561 11.6002 8.24385 11.1422C8.26135 10.9783 8.51687 10.9636 8.52249 11.1372C8.52691 12.5202 8.52601 13.9032 8.52511 15.2861C8.52473 15.8556 8.52436 16.425 8.52436 16.9945C9.07699 17.0051 9.62961 17.0037 10.1822 17.0023C10.5467 17.0013 10.9112 17.0004 11.2757 17.0029C11.2801 15.2057 11.2796 13.4084 11.279 11.6111C11.2786 10.0801 11.2781 8.54901 11.2807 7.01797C10.7665 7.00944 10.252 7.01048 9.73772 7.01152C9.40416 7.0122 9.07068 7.01287 8.7374 7.01094C8.67809 7.01214 8.61845 7.01137 8.55873 7.01059C8.37435 7.0082 8.1892 7.0058 8.01083 7.06156C7.73344 7.14522 7.47792 7.32451 7.2955 7.5755C7.041 7.92233 6.93023 8.36046 6.82239 8.78696C6.80978 8.83683 6.79722 8.88655 6.78446 8.93594C6.63223 9.5105 6.48184 10.0855 6.33147 10.6604C6.13131 11.4256 5.93118 12.1907 5.72678 12.9547C5.69616 13.0826 5.53811 13.0362 5.53248 12.9167C5.34855 12.2212 5.16634 11.5253 4.98414 10.8294C4.81915 10.1993 4.65417 9.56923 4.48792 8.93945C4.46939 8.87027 4.45157 8.80052 4.4337 8.73061C4.34191 8.37139 4.2491 8.00822 4.0556 7.69924C3.80695 7.26826 3.35214 7.00461 2.89733 7.01094H2.89626ZM13.8143 7.01206C13.3871 7.0107 12.9598 7.00934 12.5327 7.01656C12.5346 9.60507 12.5339 12.1936 12.5332 14.7821C12.533 15.5219 12.5328 16.2617 12.5327 17.0015C13.1051 17.0028 13.6776 17.0025 14.25 17.0023C14.6315 17.0021 15.0131 17.0019 15.3946 17.0022C15.6439 17.0149 15.8582 16.8265 16.005 16.6162C16.2402 16.2801 16.3988 15.8886 16.5558 15.5011C16.5748 15.4542 16.5938 15.4073 16.6129 15.3606C16.8575 14.7525 17.1018 14.1441 17.3462 13.5357C17.6748 12.7176 18.0035 11.8994 18.3328 11.0817C18.359 10.9298 18.6133 10.9158 18.6158 11.0852C18.6195 12.3991 18.6188 13.7133 18.6181 15.0274C18.6178 15.6843 18.6175 16.3412 18.6177 16.998C19.5342 17.005 20.45 17.0057 21.3659 16.9973C21.3671 13.6704 21.3671 10.3435 21.3659 7.01656C20.7254 7.00981 20.0853 7.011 19.4452 7.01218C19.1518 7.01272 18.8585 7.01327 18.5652 7.01305C18.3615 7.0025 18.186 7.14804 18.0454 7.29779C17.7938 7.5866 17.6431 7.95476 17.4939 8.31923C17.4568 8.40992 17.4198 8.50037 17.3813 8.58932C17.1199 9.20669 16.8589 9.82419 16.598 10.4417C16.2509 11.2629 15.9039 12.084 15.5558 12.9048C15.5077 13.0355 15.3634 13.0109 15.2853 12.9322C15.2836 12.1698 15.2844 11.4075 15.2853 10.6452C15.2866 9.43129 15.2879 8.21747 15.2791 7.00391C14.7909 7.01516 14.3026 7.01361 13.8143 7.01206ZM27.6598 11.5679C26.0082 11.566 24.3565 11.5641 22.7053 11.5767C22.7103 12.6097 22.7096 13.6427 22.7089 14.6755C22.7084 15.45 22.7078 16.2244 22.7097 16.9987C23.2141 17.003 23.7186 17.0025 24.2229 17.0021C24.6355 17.0018 25.048 17.0014 25.4604 17.0036C25.4615 16.5654 25.461 16.1271 25.4606 15.6888C25.4599 15.0626 25.4593 14.4365 25.4629 13.8103C25.9436 13.8084 26.4242 13.8088 26.9046 13.8092C27.4752 13.8097 28.0456 13.8102 28.616 13.8068C29.4069 13.7836 30.176 13.3842 30.7114 12.7304C30.9831 12.3957 31.2393 12.0119 31.3361 11.5661C30.1108 11.5706 28.8853 11.5692 27.6598 11.5679ZM28.8051 7.0129C26.656 7.01079 24.5063 7.0129 22.3572 7.01571C22.4771 7.96415 22.8495 8.88236 23.4536 9.56293C24.1702 10.3947 25.1673 10.8685 26.1787 11.0127C26.5228 11.0703 26.8702 11.0685 27.2169 11.0667C27.3229 11.0662 27.4287 11.0656 27.5344 11.0668C28.0327 11.066 28.531 11.0666 29.0293 11.0672C29.848 11.0682 30.6666 11.0692 31.4853 11.064C31.529 10.7342 31.5353 10.3989 31.5184 10.0663C31.4459 9.14249 31.0086 8.26999 30.3601 7.70191C29.9134 7.31592 29.3687 7.0579 28.8051 7.0129Z" fill="#A4A4A4"/>
</g>
<defs>
<clipPath id="clip0_751_343">
<rect width="32" height="25" fill="white"/>
</clipPath>
</defs>
</svg>
