<svg width="24" height="24" viewBox="0 0 24 24" fill="none" xmlns="http://www.w3.org/2000/svg">
<path d="M2.77988 7.44L11.6099 12.55L20.3799 7.46997M11.6099 21.61V12.54M16.6099 13.24V9.58002L7.11987 4.09998M9.53986 2.48L4.19986 5.45003C2.98986 6.12003 1.99988 7.80001 1.99988 9.18001V14.83C1.99988 16.21 2.98986 17.89 4.19986 18.56L9.53986 21.53C10.6799 22.16 12.5498 22.16 13.6898 21.53L19.0299 18.56C20.2399 17.89 21.2299 16.21 21.2299 14.83V9.18001C21.2299 7.80001 20.2399 6.12003 19.0299 5.45003L13.6898 2.48C12.5398 1.84 10.6799 1.84 9.53986 2.48Z" stroke="#2C2C2C" stroke-width="1.5" stroke-linecap="round" stroke-linejoin="round"/>
</svg>
