<svg width="20" height="20" viewBox="0 0 20 20" fill="none" xmlns="http://www.w3.org/2000/svg">
<path d="M10 2C5.59201 2 2.00001 5.592 2.00001 10C2.00001 14.408 5.59201 18 10 18C14.408 18 18 14.408 18 10C18 5.592 14.408 2 10 2ZM13.48 12.856C13.368 13.048 13.168 13.152 12.96 13.152C12.856 13.152 12.752 13.128 12.656 13.064L10.176 11.584C9.56001 11.216 9.10401 10.408 9.10401 9.696V6.416C9.10401 6.088 9.37601 5.816 9.70401 5.816C10.032 5.816 10.304 6.088 10.304 6.416V9.696C10.304 9.984 10.544 10.408 10.792 10.552L13.272 12.032C13.56 12.2 13.656 12.568 13.48 12.856Z" fill="#F7AD3F"/>
</svg>
