<svg width="18" height="24" viewBox="0 0 18 24" fill="none" xmlns="http://www.w3.org/2000/svg">
<g id="Group 12">
<g id="Group 8">
<path id="Vector" d="M0.0012207 5.33398L1.89203 10.4462V13.5651L0.00343384 18.6673L0.0012207 5.33398Z" fill="#5B57A2"/>
<path id="Vector_2" d="M10.4011 8.80717L12.8838 7.24384L17.9644 7.23828L10.4011 12.0005V8.80717Z" fill="#D90751"/>
<path id="Vector_3" d="M10.3868 5.48893L10.4012 12L7.56445 10.3056V0.572266L10.3868 5.48893Z" fill="#FAB718"/>
<path id="Vector_4" d="M17.9656 7.23351L12.7932 7.23796L10.253 5.61907L7.56445 0.571289L17.9656 7.23351Z" fill="#ED6F26"/>
<path id="Vector_5" d="M10.4012 18.6176V15.5287L7.56445 13.9043L7.56667 23.4287L10.4012 18.6176Z" fill="#63B22F"/>
<path id="Vector_6" d="M12.8208 16.7629L2.6863 10.3118L0 5.33398L17.9632 16.7562L12.8186 16.7629H12.8208Z" fill="#1487C9"/>
<path id="Vector_7" d="M7.56556 23.4294L10.2685 18.376L12.7921 16.7694L17.9645 16.7627L7.56556 23.4294Z" fill="#017F36"/>
<path id="Vector_8" d="M0.0012207 18.6667L7.56446 13.6789L5.02199 12L2.65654 13.56L0.0012207 18.6667Z" fill="#984995"/>
</g>
</g>
</svg>
