<svg width="24" height="24" viewBox="0 0 24 24" fill="none" xmlns="http://www.w3.org/2000/svg">
<g id="Icons / 24 / send">
<path id="Vector" d="M22.9617 3.41968L19.085 19.6736C19.0025 20.0271 18.7447 20.3248 18.3838 20.483C18.023 20.6412 17.6105 20.6412 17.2394 20.483L14.3524 19.2177C14.3524 19.2177 10.6613 21.6274 9.90859 21.9437C9.76424 22.0088 9.70238 21.9995 9.59927 21.9995C9.3958 22 9.20034 21.928 9.0555 21.799C8.91066 21.67 8.82816 21.4947 8.82598 21.3111V16.3707C8.81567 16.2683 8.82598 16.166 8.88785 16.0637C8.94971 15.9613 8.89816 16.0451 8.90847 16.0357C8.9394 15.9892 8.97033 15.9427 9.01157 15.8962L18.5076 6.51787L6.70202 15.2821C6.57502 15.3995 6.40653 15.473 6.22574 15.49C6.04495 15.507 5.86328 15.4664 5.71221 15.3752L1.74266 13.7563C1.2993 13.5609 1.02092 13.1702 1.0003 12.7236C0.989988 12.2863 1.24775 11.8769 1.68079 11.6629L21.0646 2.14505C21.5182 1.92175 22.0544 1.95897 22.4771 2.23808C22.8895 2.5172 23.0751 2.97309 22.972 3.41968H22.9617Z" fill="white"/>
</g>
</svg>
