<svg width="44" height="44" viewBox="0 0 44 44" fill="none" xmlns="http://www.w3.org/2000/svg">
<path opacity="0.25" d="M39.1784 20.8817V31.8633C39.1784 36.9233 35.0718 41.03 30.0118 41.03H13.9884C8.92844 41.03 4.82178 36.9233 4.82178 31.8633V21.01C6.21511 22.5133 8.19511 23.375 10.3401 23.375C12.6501 23.375 14.8684 22.22 16.2618 20.3683C17.5084 22.22 19.6351 23.375 22.0001 23.375C24.3468 23.375 26.4368 22.275 27.7018 20.4417C29.1134 22.2567 31.2951 23.375 33.5684 23.375C35.7868 23.375 37.8034 22.4767 39.1784 20.8817Z" fill="#2C2C2C"/>
<path d="M27.4815 2.29169H16.4815L15.1248 15.785C15.0148 17.0317 15.1981 18.205 15.6565 19.2684C16.7198 21.7617 19.2131 23.375 21.9998 23.375C24.8231 23.375 27.2615 21.7984 28.3615 19.2867C28.6915 18.4984 28.8931 17.5817 28.9115 16.6467V16.2984L27.4815 2.29169Z" fill="#2C2C2C"/>
<path opacity="0.5" d="M40.9936 15.1617L40.4619 10.0834C39.6919 4.54669 37.1802 2.29169 31.8086 2.29169H24.7686L26.1252 16.0417C26.1436 16.225 26.1619 16.4267 26.1619 16.775C26.2719 17.7284 26.5652 18.6084 27.0052 19.3967C28.3252 21.8167 30.8919 23.375 33.5686 23.375C36.0069 23.375 38.2069 22.2934 39.5819 20.3867C40.6819 18.92 41.1769 17.0684 40.9936 15.1617Z" fill="#2C2C2C"/>
<path opacity="0.5" d="M12.0815 2.29169C6.69151 2.29169 4.19818 4.54669 3.40985 10.1384L2.91485 15.18C2.73151 17.1417 3.26318 19.0484 4.41818 20.5334C5.81151 22.3484 7.95651 23.375 10.3398 23.375C13.0165 23.375 15.5832 21.8167 16.8848 19.4334C17.3615 18.6084 17.6732 17.655 17.7648 16.665L19.1948 2.31002H12.0815V2.29169Z" fill="#2C2C2C"/>
<path d="M20.8085 30.5433C18.4802 30.7816 16.7202 32.7616 16.7202 35.1083V41.03H27.2619V35.75C27.2802 31.9183 25.0252 30.1033 20.8085 30.5433Z" fill="#2C2C2C"/>
</svg>
