<svg width="18" height="18" viewBox="0 0 18 18" fill="none" xmlns="http://www.w3.org/2000/svg">
<rect width="18" height="18" fill="#B1B1B1"/>
<g id="&#208;&#159;&#208;&#190;&#208;&#187;&#209;&#140;&#208;&#183;&#208;&#190;&#208;&#178;&#208;&#176;&#209;&#130;&#208;&#181;&#208;&#187;&#208;&#184;" clip-path="url(#clip0_115_2960)">
<rect width="1440" height="648" transform="translate(-115 -143)" fill="#FAFAFA"/>
<g id="Frame 8">
<g clip-path="url(#clip1_115_2960)">
<rect x="-85" y="-71" width="1380" height="552" rx="10" fill="white"/>
<g id="Frame 6">
<mask id="path-3-inside-1_115_2960" fill="white">
<path d="M-85 -11H1295V29H-85V-11Z"/>
</mask>
<path d="M-85 -11H1295V29H-85V-11Z" fill="white"/>
<path d="M1295 28H-85V30H1295V28Z" fill="#E9E9E9" mask="url(#path-3-inside-1_115_2960)"/>
<g id="progress-help">
<mask id="path-5-inside-2_115_2960" fill="white">
<path d="M-9 -11H27V29H-9V-11Z"/>
</mask>
<path d="M-8 29V-11H-10V29H-8Z" fill="black" fill-opacity="0.04" mask="url(#path-5-inside-2_115_2960)"/>
<path id="Vector" d="M8.94898 12.3334V12.3417M8.94898 9.83338C9.32377 9.83451 9.688 9.70927 9.98286 9.47791C10.2777 9.24654 10.486 8.92254 10.574 8.55824C10.6621 8.19393 10.6247 7.81058 10.4681 7.4701C10.3114 7.12961 10.0446 6.85187 9.71064 6.68171C9.37912 6.51189 8.9999 6.45923 8.63465 6.53231C8.26941 6.60539 7.93963 6.79991 7.69898 7.08421M7.28233 16.3143C6.557 16.1498 5.86039 15.8776 5.21566 15.5068M10.6156 1.68579C12.2724 2.06418 13.7517 2.99387 14.8112 4.32263C15.8707 5.65139 16.4477 7.3005 16.4477 8.99996C16.4477 10.6994 15.8707 12.3485 14.8112 13.6773C13.7517 15.006 12.2724 15.9357 10.6156 16.3141M2.76485 13.2442C2.31027 12.5837 1.96502 11.8544 1.74235 11.0842M1.55233 7.75006C1.68566 6.95839 1.94233 6.20839 2.30233 5.52089L2.44316 5.26672M4.7048 2.81579C5.48451 2.27904 6.35923 1.89555 7.2823 1.68579" stroke="#747474" stroke-width="1.5" stroke-linecap="round" stroke-linejoin="round"/>
</g>
</g>
</g>
<rect x="-84.5" y="-70.5" width="1379" height="551" rx="9.5" stroke="#E9E9E9"/>
</g>
</g>
<defs>
<clipPath id="clip0_115_2960">
<rect width="1440" height="648" fill="white" transform="translate(-115 -143)"/>
</clipPath>
<clipPath id="clip1_115_2960">
<rect x="-85" y="-71" width="1380" height="552" rx="10" fill="white"/>
</clipPath>
</defs>
</svg>
