<svg width="20" height="20" viewBox="0 0 20 20" fill="none" xmlns="http://www.w3.org/2000/svg">
<path d="M10 2C5.59201 2 2.00001 5.592 2.00001 10C2.00001 14.408 5.59201 18 10 18C14.408 18 18 14.408 18 10C18 5.592 14.408 2 10 2ZM13.824 8.16L9.28801 12.696C9.17601 12.808 9.02401 12.872 8.86401 12.872C8.70401 12.872 8.55201 12.808 8.44001 12.696L6.17601 10.432C5.94401 10.2 5.94401 9.816 6.17601 9.584C6.40801 9.352 6.79201 9.352 7.02401 9.584L8.86401 11.424L12.976 7.312C13.208 7.08 13.592 7.08 13.824 7.312C14.056 7.544 14.056 7.92 13.824 8.16Z" fill="#55C421"/>
</svg>
