<svg width="20" height="20" viewBox="0 0 20 20" fill="none" xmlns="http://www.w3.org/2000/svg">
<g id="Icons / 20 / timer">
<g id="Vector">
<path d="M10 3.23656C5.58939 3.23656 2 6.81564 2 11.2136C2 15.6115 5.58939 19.1998 10 19.1998C14.4106 19.1998 18 15.6207 18 11.2228C18 6.82484 14.4106 3.23656 10 3.23656ZM10.692 10.9192C10.692 11.2964 10.3783 11.6092 10 11.6092C9.62168 11.6092 9.30796 11.2964 9.30796 10.9192V6.3188C9.30796 5.94157 9.62168 5.62874 10 5.62874C10.3783 5.62874 10.692 5.94157 10.692 6.3188V10.9192Z" fill="#2C2C2C"/>
<path d="M12.6672 2.13391H7.33384C6.96475 2.13391 6.66948 1.83949 6.66948 1.47146C6.66948 1.10343 6.96475 0.799805 7.33384 0.799805H12.6672C13.0363 0.799805 13.3315 1.09423 13.3315 1.46226C13.3315 1.83029 13.0363 2.13391 12.6672 2.13391Z" fill="#2C2C2C"/>
</g>
</g>
</svg>
