<svg width="24" height="24" viewBox="0 0 24 24" fill="none" xmlns="http://www.w3.org/2000/svg">
<path d="M18.6667 9.63247V7.875C18.6667 4.08436 15.6758 1 12 1C8.32423 1 5.33333 4.08436 5.33333 7.875V9.63247C4.54013 10.1094 4 10.9865 4 12V20.25C4 21.7667 5.19595 23 6.66665 23H17.3333C18.8041 23 20 21.7667 20 20.25V12C20 10.9865 19.4599 10.1094 18.6667 9.63247ZM12 3.74998C14.2057 3.74998 16 5.6003 16 7.875V9.24999H7.99998V7.875C7.99998 5.60035 9.79427 3.74998 12 3.74998ZM13.3333 16.9647V18.875H10.6667V16.9647C10.2602 16.5873 10 16.046 10 15.4375C10 14.2984 10.8954 13.375 12 13.375C13.1046 13.375 14 14.2984 14 15.4375C14 16.046 13.7398 16.5873 13.3333 16.9647Z" fill="#A4A4A4"/>
</svg>
