<svg width="45" height="44" viewBox="0 0 45 44" fill="none" xmlns="http://www.w3.org/2000/svg">
<path opacity="0.25" d="M41.9998 13.8294V30.1706C41.9998 35.6501 39.4843 39.4136 35.0578 40.8371C33.7708 41.2856 32.2888 41.5001 30.6702 41.5001H14.3291C12.7106 41.5001 11.2286 41.2856 9.94157 40.8371C5.51503 39.4136 2.99951 35.6501 2.99951 30.1706V13.8294C2.99951 6.73135 7.23104 2.49982 14.3291 2.49982H30.6702C37.7683 2.49982 41.9998 6.73135 41.9998 13.8294Z" fill="#2C2C2C"/>
<path d="M35.0581 40.8371C33.7711 41.2856 32.2891 41.5002 30.6706 41.5002H14.3294C12.7109 41.5002 11.2289 41.2856 9.94189 40.8371C10.6244 35.6891 16.0065 31.6915 22.5 31.6915C28.9936 31.6915 34.3756 35.6891 35.0581 40.8371Z" fill="#2C2C2C"/>
<path d="M29.4807 21.181C29.4807 25.042 26.3606 28.1815 22.4996 28.1815C18.6386 28.1815 15.5186 25.042 15.5186 21.181C15.5186 17.32 18.6386 14.1999 22.4996 14.1999C26.3606 14.1999 29.4807 17.32 29.4807 21.181Z" fill="#2C2C2C"/>
</svg>
